<svg width="100%" height="100%" id="svg" viewBox="0 0 1440 700" xmlns="http://www.w3.org/2000/svg" class="transition duration-300 ease-in-out delay-150"><defs><linearGradient id="gradient" x1="0%" y1="50%" x2="100%" y2="50%"><stop offset="5%" stop-color="#002bdc"></stop><stop offset="95%" stop-color="#32ded4"></stop></linearGradient></defs><path d="M 0,700 C 0,700 0,140 0,140 C 80.50512820512819,138.51538461538462 161.01025641025637,137.03076923076924 237,129 C 312.9897435897436,120.96923076923076 384.46410256410263,106.3923076923077 461,121 C 537.5358974358974,135.6076923076923 619.1333333333333,179.4 700,179 C 780.8666666666667,178.6 861.0025641025641,134.0076923076923 936,117 C 1010.9974358974359,99.99230769230769 1080.8564102564103,110.56923076923077 1164,119 C 1247.1435897435897,127.43076923076923 1343.5717948717947,133.7153846153846 1440,140 C 1440,140 1440,700 1440,700 Z" stroke="none" stroke-width="0" fill="url(#gradient)" fill-opacity="0.265" class="transition-all duration-300 ease-in-out delay-150 path-0"></path><defs><linearGradient id="gradient" x1="0%" y1="50%" x2="100%" y2="50%"><stop offset="5%" stop-color="#002bdc"></stop><stop offset="95%" stop-color="#32ded4"></stop></linearGradient></defs><path d="M 0,700 C 0,700 0,280 0,280 C 98.61794871794874,286.23846153846154 197.23589743589747,292.4769230769231 266,290 C 334.76410256410253,287.5230769230769 373.674358974359,276.3307692307692 441,264 C 508.325641025641,251.6692307692308 604.0666666666666,238.20000000000002 689,233 C 773.9333333333334,227.79999999999998 848.0589743589744,230.86923076923074 926,250 C 1003.9410256410256,269.13076923076926 1085.6974358974358,304.32307692307694 1172,312 C 1258.3025641025642,319.67692307692306 1349.1512820512821,299.8384615384615 1440,280 C 1440,280 1440,700 1440,700 Z" stroke="none" stroke-width="0" fill="url(#gradient)" fill-opacity="0.4" class="transition-all duration-300 ease-in-out delay-150 path-1"></path><defs><linearGradient id="gradient" x1="0%" y1="50%" x2="100%" y2="50%"><stop offset="5%" stop-color="#002bdc"></stop><stop offset="95%" stop-color="#32ded4"></stop></linearGradient></defs><path d="M 0,700 C 0,700 0,420 0,420 C 64.25641025641022,425.66410256410256 128.51282051282044,431.3282051282052 217,441 C 305.48717948717956,450.6717948717948 418.2051282051283,464.35128205128206 503,456 C 587.7948717948717,447.64871794871794 644.6666666666666,417.26666666666665 724,409 C 803.3333333333334,400.73333333333335 905.1282051282051,414.5820512820512 995,426 C 1084.871794871795,437.4179487179488 1162.8205128205127,446.4051282051282 1235,445 C 1307.1794871794873,443.5948717948718 1373.5897435897436,431.7974358974359 1440,420 C 1440,420 1440,700 1440,700 Z" stroke="none" stroke-width="0" fill="url(#gradient)" fill-opacity="0.53" class="transition-all duration-300 ease-in-out delay-150 path-2"></path><defs><linearGradient id="gradient" x1="0%" y1="50%" x2="100%" y2="50%"><stop offset="5%" stop-color="#002bdc"></stop><stop offset="95%" stop-color="#32ded4"></stop></linearGradient></defs><path d="M 0,700 C 0,700 0,560 0,560 C 66.41794871794875,589.3256410256411 132.8358974358975,618.651282051282 216,609 C 299.1641025641025,599.348717948718 399.0743589743589,550.7205128205128 495,539 C 590.9256410256411,527.2794871794872 682.8666666666666,552.4666666666668 764,569 C 845.1333333333334,585.5333333333332 915.4589743589745,593.4128205128205 978,580 C 1040.5410256410255,566.5871794871795 1095.297435897436,531.8820512820513 1171,525 C 1246.702564102564,518.1179487179487 1343.351282051282,539.0589743589744 1440,560 C 1440,560 1440,700 1440,700 Z" stroke="none" stroke-width="0" fill="url(#gradient)" fill-opacity="1" class="transition-all duration-300 ease-in-out delay-150 path-3"></path></svg>